<?xml version="1.0" standalone="no"?>
<!DOCTYPE svg PUBLIC "-//W3C//DTD SVG 20010904//EN"
 "http://www.w3.org/TR/2001/REC-SVG-20010904/DTD/svg10.dtd">
<svg version="1.0" xmlns="http://www.w3.org/2000/svg"
 width="1024.000000pt" height="1024.000000pt" viewBox="0 0 1024.000000 1024.000000"
 preserveAspectRatio="xMidYMid meet">

<g transform="translate(0.000000,1024.000000) scale(0.100000,-0.100000)"
fill="#000000" stroke="none">
<path d="M5290 8490 c0 -5 9 -12 20 -15 64 -20 178 -178 195 -269 4 -21 13
-39 19 -42 6 -2 63 -13 126 -23 140 -25 377 -89 525 -143 466 -172 911 -467
1236 -821 450 -490 714 -1035 824 -1699 5 -34 9 -38 35 -38 82 0 195 -42 259
-95 l31 -27 0 24 c0 47 -39 296 -65 413 -96 444 -287 878 -552 1252 -372 526
-876 939 -1456 1193 -320 140 -710 245 -1037 280 -58 6 -117 13 -132 15 -16 3
-28 0 -28 -5z"/>
<path d="M4690 8479 c-328 -38 -704 -139 -1005 -269 -433 -188 -752 -406
-1091 -745 -286 -285 -473 -541 -648 -885 -147 -288 -247 -574 -306 -875 -22
-107 -49 -295 -44 -295 2 0 24 15 49 34 55 43 139 75 215 83 l59 6 6 41 c40
247 161 607 290 861 258 506 629 917 1120 1241 343 226 804 407 1194 471 l110
18 6 35 c17 91 93 207 171 259 l47 31 -49 -1 c-27 -1 -83 -5 -124 -10z"/>
<path d="M4987 8479 c-126 -30 -240 -136 -278 -262 -43 -138 -10 -274 90 -380
188 -198 512 -145 630 103 23 48 26 68 26 160 0 93 -3 112 -27 162 -78 167
-264 259 -441 217z m73 -79 c24 -24 25 -38 4 -68 -21 -30 -58 -28 -83 4 -17
21 -19 30 -9 48 22 41 56 48 88 16z m-3 -112 c6 -7 13 -30 17 -50 l7 -37 57
-3 c53 -3 57 -5 60 -30 3 -26 1 -26 -62 -33 -36 -4 -66 -11 -66 -16 0 -5 29
-9 63 -9 72 0 78 -4 121 -85 22 -42 31 -51 54 -50 45 0 41 -36 -6 -63 -22 -12
-45 -22 -50 -22 -6 0 -27 29 -47 65 l-37 65 -87 0 c-54 0 -92 5 -99 12 -13 13
-18 249 -5 261 11 12 70 8 80 -5z m-142 -201 c-29 -29 -35 -42 -35 -78 0 -150
192 -193 260 -58 15 29 25 38 32 31 26 -26 -30 -114 -89 -138 -74 -31 -169 -6
-214 58 -17 23 -24 49 -27 93 -4 70 17 112 70 145 32 19 33 19 36 2 2 -11 -12
-34 -33 -55z"/>
<path d="M5467 7899 c-21 -34 -37 -65 -37 -69 0 -3 46 -12 102 -19 56 -7 165
-28 242 -48 805 -202 1481 -750 1854 -1500 90 -182 118 -253 178 -447 36 -119
88 -367 100 -480 l7 -68 31 33 c17 19 46 45 64 59 l33 25 -20 118 c-83 481
-271 911 -572 1309 -122 160 -395 435 -554 555 -287 216 -553 359 -869 464
-119 40 -358 101 -446 114 -25 4 -52 8 -61 11 -11 3 -27 -15 -52 -57z"/>
<path d="M4485 7926 c-536 -112 -982 -332 -1387 -683 -315 -273 -607 -670
-768 -1043 -86 -200 -167 -465 -196 -640 l-14 -85 33 -25 c17 -13 45 -38 60
-54 15 -16 29 -27 31 -25 2 2 8 43 15 90 36 265 143 584 292 869 382 727 1110
1282 1904 1449 77 16 168 33 203 37 34 3 62 10 62 14 0 3 -14 32 -31 63 -36
68 -37 68 -204 33z"/>
<path d="M5498 7778 c-22 -7 -28 -16 -28 -39 0 -37 -39 -66 -69 -50 -27 15
-26 15 -50 -25 l-22 -37 22 -23 c16 -17 20 -30 15 -48 -3 -15 -10 -26 -14 -26
-5 0 -16 -6 -26 -13 -14 -10 -16 -21 -11 -50 7 -34 10 -37 41 -37 42 0 69 -35
59 -78 -5 -25 -2 -32 27 -51 l33 -21 21 24 c27 30 70 25 87 -11 10 -21 15 -24
46 -18 49 9 51 12 45 44 -7 36 33 66 76 56 25 -6 31 -2 45 25 16 31 16 33 -5
55 -29 30 -23 66 13 83 25 12 27 17 21 45 -9 45 -11 47 -48 47 -41 0 -62 32
-47 72 9 25 7 29 -26 49 l-36 23 -21 -25 c-29 -34 -74 -28 -88 12 -11 31 -18
33 -60 17z m117 -144 c107 -50 84 -205 -32 -221 -79 -10 -141 51 -130 129 6
45 29 75 72 94 39 17 50 17 90 -2z"/>
<path d="M4781 7445 c-133 -30 -243 -101 -303 -195 -48 -75 -78 -188 -78 -290
l0 -88 -66 -111 c-75 -125 -75 -131 3 -150 l45 -12 -6 -39 c-5 -33 -3 -41 16
-54 17 -12 19 -19 11 -27 -6 -6 -9 -18 -6 -27 5 -11 3 -13 -8 -7 -8 5 -4 -3 9
-17 18 -20 21 -32 16 -69 -11 -84 43 -119 188 -119 42 0 80 -5 83 -10 4 -6 10
-8 14 -6 9 6 15 -43 15 -126 l0 -68 302 0 303 0 -25 73 c-31 87 -42 216 -24
273 7 21 40 80 73 129 90 134 125 215 139 328 9 75 9 113 0 174 -7 43 -17 80
-22 81 -6 2 -7 8 -4 14 10 16 -54 133 -102 188 -46 50 -47 50 -61 30 -8 -12
-12 -24 -9 -27 3 -3 8 2 12 11 7 19 23 22 20 4 -3 -25 -16 -36 -36 -31 -11 3
-20 9 -20 13 0 4 -9 10 -21 13 -12 3 -18 10 -15 16 4 6 12 8 19 5 7 -2 18 5
25 17 8 12 9 18 4 15 -16 -10 -71 14 -66 29 6 14 -60 43 -106 48 -14 1 -28 6
-31 10 -12 16 -221 18 -288 2z m189 -7 c0 -5 -6 -8 -13 -6 -10 3 -23 -9 -14
-13 8 -6 47 14 47 24 0 7 4 6 10 -3 7 -11 3 -18 -18 -30 -15 -8 -29 -14 -32
-13 -3 1 -11 -5 -18 -13 -11 -12 -10 -14 3 -14 9 0 29 -7 46 -15 23 -12 40
-14 80 -7 28 5 52 6 55 1 3 -5 14 -9 25 -9 11 0 17 -4 14 -10 -3 -5 7 -15 22
-21 74 -29 94 -40 89 -48 -3 -4 3 -16 14 -26 11 -10 20 -23 20 -30 0 -6 13
-21 30 -33 41 -31 63 -76 58 -123 -3 -30 0 -39 12 -40 10 0 11 -2 3 -6 -10 -3
-10 -10 -2 -25 16 -31 4 -117 -21 -143 -11 -12 -18 -24 -14 -27 3 -4 -5 -9
-18 -13 -28 -9 -38 -23 -38 -52 0 -12 -18 -42 -39 -67 -21 -25 -41 -51 -44
-58 -3 -10 -8 -11 -26 0 -11 6 -38 12 -58 12 -48 0 -96 29 -130 80 -28 39 -28
40 -79 34 -27 -3 -70 -1 -94 6 -49 13 -100 58 -100 89 0 16 -9 21 -47 26 -101
12 -176 75 -190 157 -8 54 48 188 98 233 22 19 49 35 61 35 12 0 35 12 50 27
22 21 39 28 71 28 46 1 87 19 74 32 -5 4 -15 0 -22 -10 -7 -10 -15 -14 -18
-10 -3 5 9 22 28 37 18 16 32 33 29 40 -3 7 13 11 46 12 27 1 50 -3 50 -8z
m-110 -4 c0 -8 -43 -43 -52 -44 -16 0 -7 39 10 43 27 7 42 8 42 1z m209 -20
c2 -2 -5 -4 -16 -4 -12 0 -23 7 -27 15 -5 13 -2 14 17 4 12 -6 24 -13 26 -15z
m-298 -21 c11 -13 11 -15 1 -9 -9 5 -15 1 -19 -13 -3 -12 -13 -21 -25 -21 -10
0 -17 -4 -14 -8 3 -5 -1 -9 -9 -9 -8 0 -15 6 -15 14 0 7 8 13 18 13 25 0 58
36 40 43 -7 3 -8 6 -2 6 6 1 18 -7 25 -16z m275 -9 c-5 -12 -3 -14 7 -8 7 5 4
1 -6 -8 -11 -10 -24 -15 -30 -11 -8 5 -7 8 1 11 7 2 12 10 12 18 0 8 5 14 11
14 6 0 8 -7 5 -16z m-363 -67 c3 -8 -1 -14 -8 -14 -7 0 -11 6 -8 14 3 7 6 13
8 13 2 0 5 -6 8 -13z m724 -143 c-3 -3 -12 -4 -19 -1 -8 3 -5 6 6 6 11 1 17
-2 13 -5z m-147 -1009 c0 -8 -4 -15 -8 -15 -5 0 -9 7 -9 15 0 8 4 15 9 15 4 0
8 -7 8 -15z"/>
<path d="M4045 6359 c-17 -34 -100 -193 -187 -353 l-156 -291 99 -3 99 -3 0
-577 c0 -620 2 -643 53 -769 77 -191 261 -354 452 -403 124 -32 284 -30 395 5
106 34 162 62 228 114 28 23 55 41 60 41 5 0 21 -9 36 -21 14 -11 30 -18 35
-14 14 8 120 140 171 212 36 52 41 64 30 78 -11 13 5 15 159 15 l171 0 0 140
0 140 -314 0 -314 0 -6 25 c-8 33 -16 31 -43 -7 -12 -17 -68 -80 -123 -140
l-102 -108 22 -34 21 -35 -43 -25 c-24 -14 -64 -33 -88 -42 -47 -17 -200 -26
-200 -12 0 4 -6 8 -13 8 -8 0 -41 18 -75 39 -33 22 -63 36 -67 33 -4 -4 -5 -2
-3 3 4 13 -27 56 -35 50 -4 -3 -5 -2 -3 1 2 3 -8 31 -22 62 l-27 57 -5 590
c-3 325 -4 591 -3 593 1 2 10 -1 21 -7 23 -12 182 -15 182 -3 0 14 -81 145
-97 157 -9 7 -13 16 -10 21 4 7 -210 429 -260 513 -6 9 -17 -6 -38 -50z m1175
-2083 c0 -2 -8 -10 -17 -17 -16 -13 -17 -12 -4 4 13 16 21 21 21 13z"/>
<path d="M4653 5613 c4 -58 7 -123 7 -145 l0 -38 218 0 c119 0 335 3 480 7
l262 6 0 139 0 138 -487 0 -486 0 6 -107z"/>
<path d="M1815 5461 c-69 -18 -179 -86 -169 -103 4 -7 2 -8 -4 -4 -16 10 -79
-80 -97 -138 -17 -56 -21 -201 -5 -191 6 3 10 2 10 -4 0 -5 3 -18 6 -28 5 -15
4 -16 -5 -3 -9 12 -10 8 -5 -15 9 -40 31 -83 63 -122 31 -37 89 -84 77 -63 -4
8 1 5 11 -7 58 -71 242 -91 356 -40 68 31 154 114 179 172 24 59 32 79 33 90
1 6 5 32 10 59 23 141 -76 306 -223 373 -60 28 -177 40 -237 24z m-128 -133
c-3 -8 -6 -5 -6 6 -1 11 2 17 5 13 3 -3 4 -12 1 -19z m-12 -17 c3 -5 1 -12 -5
-16 -5 -3 -10 1 -10 9 0 18 6 21 15 7z m91 0 c-3 -5 13 -11 35 -15 23 -4 54
-13 70 -22 26 -13 32 -13 69 6 46 24 179 29 181 8 0 -10 2 -10 6 0 4 10 9 7
20 -8 12 -17 13 -24 3 -30 -8 -5 -5 -9 9 -13 20 -5 21 -11 21 -174 1 -145 3
-165 14 -144 7 13 16 19 19 14 4 -6 -2 -18 -13 -28 -17 -15 -46 -17 -291 -16
-211 0 -274 3 -280 13 -5 7 -9 83 -9 169 0 152 0 156 23 168 13 7 28 25 34 41
8 22 18 29 44 33 19 2 38 5 42 5 5 1 6 -2 3 -7z m301 3 c-3 -3 -12 -4 -19 -1
-8 3 -5 6 6 6 11 1 17 -2 13 -5z m173 -82 c0 -7 -5 -10 -10 -7 -6 4 -8 11 -5
16 4 5 1 9 -5 9 -6 0 -8 5 -4 11 7 13 24 -7 24 -29z m-45 8 c3 -5 2 -10 -4
-10 -5 0 -13 5 -16 10 -3 6 -2 10 4 10 5 0 13 -4 16 -10z m-58 -373 c-1 -5 -5
-7 -8 -5 -3 2 -13 -3 -22 -10 -16 -14 -33 0 -22 18 7 12 56 9 52 -3z m20 -32
c0 -8 -4 -12 -9 -9 -5 3 -6 10 -3 15 9 13 12 11 12 -6z"/>
<path d="M2015 5251 c3 -5 0 -13 -6 -17 -8 -4 -9 -3 -5 4 4 8 0 12 -12 12 -17
0 -18 -6 -15 -47 5 -55 5 -67 1 -108 -2 -17 3 -35 11 -41 12 -10 11 -13 -7
-18 -12 -4 -22 -11 -22 -16 0 -11 54 -21 92 -17 l28 2 0 128 0 127 -36 0 c-19
0 -33 -4 -29 -9z m35 -38 c-11 -8 -20 -21 -20 -29 0 -8 -7 -14 -15 -14 -11 0
-13 4 -8 13 29 46 38 54 50 50 11 -4 9 -9 -7 -20z"/>
<path d="M1739 5183 c-1 -4 -1 -11 0 -15 0 -5 -3 -8 -9 -8 -17 0 -12 -57 6
-64 8 -3 12 -10 9 -16 -4 -6 -11 -8 -16 -5 -14 9 -11 -45 4 -59 7 -7 31 -15
54 -18 32 -5 43 -2 48 9 4 13 3 14 -10 3 -12 -10 -15 -10 -15 4 0 9 6 16 13
16 9 0 9 2 -1 8 -7 5 -10 16 -7 24 4 9 2 19 -4 23 -7 4 -5 15 7 33 9 14 12 23
6 19 -16 -10 -25 18 -11 33 9 10 9 11 0 6 -6 -3 -14 0 -17 6 -3 10 -9 8 -19
-4 -15 -19 -33 -25 -22 -9 3 5 1 12 -5 16 -5 3 -11 3 -11 -2z m31 -163 c0 -5
-4 -10 -10 -10 -5 0 -10 5 -10 10 0 6 5 10 10 10 6 0 10 -4 10 -10z"/>
<path d="M1672 5057 l-2 -117 81 1 c95 2 88 19 -8 19 l-62 0 -4 108 -3 107 -2
-118z"/>
<path d="M1868 5050 c-2 -44 0 -80 5 -80 4 0 7 36 7 80 0 44 -2 80 -4 80 -3 0
-6 -36 -8 -80z"/>
<path d="M1995 4950 c-13 -6 5 -8 55 -8 66 0 70 1 35 9 -50 10 -65 10 -90 -1z"/>
<path d="M7987 5114 c-21 -42 -37 -77 -35 -79 5 -4 47 -25 50 -25 2 0 21 34
43 75 39 73 40 74 20 89 -11 9 -25 16 -30 16 -6 0 -28 -34 -48 -76z"/>
<path d="M8461 5173 l-21 -18 40 -77 c23 -43 45 -78 49 -78 4 0 16 6 26 14 19
13 18 16 -18 92 -20 44 -41 80 -45 82 -5 1 -19 -5 -31 -15z"/>
<path d="M8232 5143 c-51 -35 -92 -74 -92 -90 0 -20 15 -16 75 18 65 36 63 37
164 -56 l60 -56 25 18 c29 21 27 33 -13 107 -26 50 -26 50 -104 67 l-78 17
-37 -25z"/>
<path d="M8070 5079 c-22 -37 -40 -72 -40 -78 0 -17 20 -23 35 -11 19 16 84
-19 149 -79 85 -78 107 -93 123 -79 12 9 8 18 -23 49 -50 51 -35 64 16 14 31
-30 43 -36 52 -27 9 9 3 21 -30 55 -57 58 -53 66 10 18 42 -32 55 -37 67 -28
11 10 2 22 -50 71 -104 95 -100 94 -169 61 -32 -15 -65 -25 -74 -22 -26 10
-19 56 14 87 l30 28 -35 4 c-34 4 -36 2 -75 -63z"/>
<path d="M8070 4955 c-10 -12 -9 -16 5 -21 19 -8 40 9 31 25 -10 15 -21 14
-36 -4z"/>
<path d="M8120 4925 c-7 -8 -9 -22 -6 -32 6 -15 9 -15 28 4 11 12 17 26 14 32
-10 15 -21 14 -36 -4z"/>
<path d="M8165 4890 c-15 -16 -16 -22 -5 -36 12 -14 15 -13 31 7 16 21 16 49
-1 49 -4 0 -15 -9 -25 -20z"/>
<path d="M8206 4844 c-3 -9 -3 -20 0 -25 8 -13 34 9 34 27 0 19 -26 18 -34 -2z"/>
<path d="M8257 4837 c-7 -20 18 -43 28 -27 4 7 1 19 -7 27 -14 13 -16 13 -21
0z"/>
<path d="M2220 4791 c0 -7 -44 -42 -108 -87 -13 -9 66 -414 96 -493 6 -18 28
-31 82 -52 41 -16 75 -27 77 -25 2 2 -12 58 -31 124 -41 141 -70 285 -87 435
-7 59 -16 107 -21 107 -4 0 -8 -4 -8 -9z"/>
<path d="M1580 4775 c0 -2 9 -73 20 -157 30 -235 79 -461 140 -647 38 -116
110 -301 117 -301 3 0 49 27 102 60 l97 59 -43 208 c-24 114 -45 235 -48 267
-3 32 -9 75 -14 95 -6 20 -17 79 -26 131 -8 52 -17 109 -20 127 -5 30 -8 32
-71 42 -81 15 -159 48 -206 90 -33 29 -48 37 -48 26z"/>
<path d="M7905 4725 c-3 -16 -12 -75 -20 -130 -19 -124 -56 -275 -95 -390 -17
-49 -28 -90 -25 -93 2 -2 38 8 80 23 60 22 79 34 87 54 19 48 76 285 89 368
l12 81 -61 59 -62 58 -5 -30z"/>
<path d="M8516 4669 c-52 -38 -133 -68 -213 -77 l-66 -7 -31 -157 -31 -157 26
6 26 5 -47 -246 -47 -246 61 -39 c112 -70 103 -70 131 -7 59 132 139 397 179
592 18 84 58 355 54 359 -2 2 -21 -10 -42 -26z"/>
<path d="M2497 4122 c-21 -59 -51 -141 -67 -182 -58 -150 -120 -322 -120 -332
0 -5 6 -8 14 -5 8 3 16 1 18 -4 5 -16 191 -69 203 -58 14 14 25 11 19 -5 -4
-11 15 -21 73 -39 118 -37 143 -41 143 -24 0 23 26 28 57 12 15 -8 34 -15 41
-15 7 0 10 -5 7 -10 -4 -6 -11 -8 -16 -5 -5 4 -9 -1 -9 -10 0 -9 5 -13 11 -9
6 3 14 2 18 -4 3 -5 70 -26 148 -46 134 -33 145 -34 183 -21 22 8 40 10 40 5
0 -6 8 -10 18 -10 16 -1 16 -1 0 -14 -15 -11 -8 -15 55 -29 145 -33 251 -49
255 -38 2 5 10 7 18 4 7 -3 11 -9 8 -14 -3 -5 0 -9 5 -9 6 0 11 9 11 20 0 11
5 20 11 20 5 0 7 5 4 10 -8 13 5 13 25 0 12 -8 12 -10 1 -10 -8 0 -11 -7 -8
-19 3 -15 1 -18 -12 -14 -14 4 -14 3 -1 -5 12 -8 249 -47 310 -51 8 -1 105
-12 215 -26 273 -34 427 -40 950 -39 442 1 586 8 923 45 84 10 100 14 91 25
-14 17 -5 18 20 2 16 -9 51 -7 173 10 232 34 329 53 325 66 -2 6 -13 9 -23 8
-10 -2 -16 0 -11 4 4 4 15 8 25 10 32 4 62 16 62 25 0 5 17 -1 37 -12 42 -24
42 -23 240 23 73 17 130 35 127 39 -2 4 1 11 7 15 8 4 9 3 5 -4 -10 -16 -5
-16 101 10 51 12 90 25 87 30 -3 4 3 7 13 6 37 -3 64 2 58 11 -3 5 -1 12 5 16
5 3 10 1 10 -5 0 -8 10 -9 30 -5 40 9 442 133 447 139 9 8 -10 55 -20 49 -6
-3 -7 -1 -3 5 3 6 -29 107 -72 224 -44 117 -90 242 -102 278 -13 36 -24 66
-25 68 -2 1 -63 -18 -136 -43 -73 -25 -230 -72 -349 -105 -602 -166 -1116
-249 -1740 -280 -905 -45 -1895 91 -2728 374 -90 31 -164 56 -165 56 -1 0 -19
-49 -40 -108z m4803 -155 c0 -7 -6 -19 -12 -26 -10 -11 -10 -13 0 -7 8 5 12 0
12 -12 0 -13 9 -21 25 -24 13 -3 24 -2 23 1 -3 31 4 52 16 48 7 -3 19 0 25 6
8 8 11 8 11 -2 0 -9 8 -11 24 -7 16 4 29 0 41 -14 10 -11 21 -17 25 -15 4 3
14 -3 21 -13 13 -15 12 -16 -3 -3 -31 24 -20 7 22 -34 l40 -39 -21 62 c-23 68
-20 92 10 92 20 0 24 -10 97 -242 3 -12 -3 -18 -26 -23 -29 -6 -30 -8 -13 -21
16 -12 15 -13 -19 -14 -38 0 -60 -17 -39 -30 7 -4 -11 -8 -38 -9 -41 -1 -49 1
-45 14 4 8 0 17 -9 21 -9 3 -13 13 -9 26 3 14 1 19 -6 14 -8 -5 -10 -2 -6 8 3
9 -1 23 -10 31 -15 15 -16 14 -16 -10 0 -43 -27 -93 -59 -109 -30 -16 -114
-20 -105 -4 7 12 -30 -4 -39 -16 -4 -6 -6 6 -3 27 2 23 -1 40 -8 43 -12 5 -18
36 -20 107 -1 43 3 52 31 77 19 17 27 30 20 33 -20 7 19 77 43 77 11 0 20 -6
20 -13z m-4548 -10 c9 -2 22 -8 30 -14 7 -6 43 -19 81 -29 66 -18 78 -30 59
-61 -6 -10 -17 -10 -46 -2 -30 8 -41 8 -47 -3 -16 -24 -9 -36 27 -48 24 -8 34
-17 32 -28 -3 -13 -13 -16 -45 -14 -37 2 -42 -1 -51 -26 -9 -28 -8 -29 33 -40
29 -8 44 -18 48 -32 3 -11 1 -20 -5 -20 -5 0 -7 -4 -4 -9 3 -5 -29 0 -71 12
-43 12 -79 25 -81 29 -2 4 -21 8 -41 8 -49 0 -103 36 -117 78 -5 18 -13 29
-17 26 -7 -7 -10 12 -10 66 0 14 -5 28 -11 32 -7 5 -5 13 7 25 15 16 19 16 27
3 8 -12 14 -10 37 11 53 49 72 53 165 36z m4785 -72 c0 -8 -4 -12 -9 -9 -5 3
-6 10 -3 15 9 13 12 11 12 -6z m-4525 -27 c3 -6 9 -31 13 -55 3 -23 9 -43 13
-43 16 1 29 17 38 50 9 29 14 35 35 32 13 -1 25 -6 26 -10 2 -4 28 -7 58 -6
33 0 52 -3 48 -9 -4 -6 5 -8 20 -5 15 3 24 2 22 -3 -3 -4 5 -9 17 -11 17 -2
24 -11 26 -32 3 -28 3 -28 -32 -22 -34 7 -35 6 -45 -31 -5 -21 -15 -65 -21
-99 -16 -81 -20 -87 -54 -74 -19 7 -26 15 -22 28 8 26 36 146 36 156 0 4 -6 6
-14 3 -9 -4 -16 3 -20 17 -3 12 -12 23 -21 23 -11 0 -13 -6 -9 -21 4 -12 3
-18 -2 -13 -4 4 -17 -30 -29 -75 -20 -80 -22 -83 -51 -83 -24 0 -30 5 -32 26
-2 21 -7 26 -23 22 -10 -3 -19 -8 -19 -12 0 -10 -60 -44 -60 -34 0 4 -5 0 -11
-9 -5 -10 -15 -18 -21 -18 -7 0 -7 4 1 14 9 11 8 15 -6 20 -10 4 -13 10 -7 14
5 4 20 45 32 92 52 194 51 192 80 185 15 -4 30 -11 34 -17z m4143 -68 c9 -38
21 -70 25 -70 5 0 6 -9 3 -20 -4 -15 0 -20 13 -21 11 0 14 -3 7 -6 -16 -6 -16
-14 -3 -48 8 -22 13 -25 24 -16 9 8 16 8 20 2 7 -11 -27 -24 -68 -25 -24 -1
-31 4 -38 29 -5 17 -12 37 -15 45 -3 8 -7 28 -9 44 -5 33 -21 49 -43 41 -12
-5 -12 -3 0 11 13 16 12 16 -8 6 -26 -14 -33 -15 -33 -3 0 5 8 12 18 14 9 3 3
5 -14 6 -33 1 -60 -21 -49 -39 3 -5 1 -10 -6 -10 -18 0 -1 -71 24 -97 24 -27
75 -31 84 -7 6 15 8 15 20 -2 22 -30 16 -51 -18 -63 -53 -18 -86 -13 -123 20
-53 46 -71 131 -41 190 29 54 112 88 143 57 9 -9 12 -8 12 4 0 17 14 26 41 27
13 1 21 -17 34 -69z m-394 10 c6 0 7 -4 4 -10 -4 -6 7 -10 27 -10 32 0 35 -5
86 -100 29 -55 55 -100 58 -100 3 0 2 5 -2 12 -4 7 -3 8 5 4 6 -4 9 -11 6 -16
-3 -5 -1 -20 4 -34 8 -20 7 -24 -4 -19 -8 3 -15 1 -15 -4 0 -5 -16 -8 -35 -7
-25 2 -34 0 -30 -9 4 -7 -2 -2 -13 10 -11 12 -22 19 -26 16 -9 -9 -7 10 3 26
6 9 16 11 27 7 15 -6 16 -4 7 5 -7 7 -19 9 -30 4 -10 -5 -21 -7 -25 -7 -5 1
-8 -14 -8 -33 0 -30 -4 -35 -27 -41 -27 -5 -86 -17 -146 -29 -16 -3 -25 -10
-21 -16 4 -7 -2 -6 -16 1 -19 10 -22 10 -18 -2 5 -11 -2 -14 -27 -14 -19 1
-31 5 -27 11 3 6 -2 4 -11 -3 -9 -8 -21 -11 -27 -7 -5 3 -10 2 -10 -4 0 -5 6
-12 13 -14 9 -4 9 -6 0 -6 -6 -1 -15 4 -18 9 -3 6 -23 10 -44 10 -55 0 -77 30
-100 131 -11 46 -20 75 -20 65 -1 -23 -11 -16 -16 11 -1 10 -8 17 -13 16 -6
-2 -9 4 -5 13 3 8 12 13 19 10 13 -5 19 6 15 28 -5 25 11 44 35 41 56 -6 108
-102 79 -145 -9 -13 -8 -13 9 0 15 12 17 23 13 61 -5 37 -2 49 9 53 34 13 41
5 53 -64 14 -78 31 -93 31 -27 0 79 47 129 123 132 43 1 44 0 37 -24 -4 -18
-15 -27 -38 -32 -48 -10 -62 -26 -62 -74 0 -28 7 -51 22 -70 19 -24 26 -27 64
-22 24 2 47 0 53 -6 8 -8 11 0 12 28 0 22 4 79 7 128 7 81 2 108 -12 72 -8
-21 -19 -19 -34 6 -11 18 -11 23 5 35 10 7 24 11 31 9 8 -3 18 -5 23 -5z
m-3294 -45 c13 -9 23 -20 23 -26 0 -6 5 -7 11 -4 6 4 8 13 5 21 -3 9 0 11 11
7 12 -5 14 -3 8 7 -5 9 -4 11 4 6 6 -4 19 -2 28 6 15 11 16 11 10 -5 -4 -11
-3 -16 3 -12 6 3 10 13 10 21 0 16 18 15 37 -2 6 -6 23 -9 36 -7 16 3 26 -1
30 -12 4 -9 3 -14 -2 -11 -5 3 -11 -1 -15 -9 -3 -8 -1 -15 4 -15 6 0 19 -15
30 -32 23 -37 26 -94 8 -153 -6 -22 -12 -43 -12 -47 -1 -3 -4 -9 -8 -13 -4 -4
-4 -13 -1 -21 6 -16 -13 -19 -22 -4 -4 6 -23 7 -44 4 -25 -4 -48 -1 -67 9 -34
18 -65 52 -56 62 4 3 -1 3 -11 -1 -9 -3 -17 -15 -17 -26 0 -16 -5 -19 -25 -16
-13 3 -22 1 -19 -4 5 -8 -36 -28 -47 -22 -3 2 -21 6 -39 9 -45 8 -47 10 -48
42 0 25 41 239 52 269 6 15 90 0 123 -21z m-1080 -35 c3 -11 10 -17 16 -13 5
3 7 1 4 -5 -11 -16 -47 -2 -47 19 0 25 20 24 27 -1z m1686 -23 c34 0 69 -5 77
-12 8 -7 21 -14 29 -17 9 -3 15 -22 16 -59 1 -29 10 -96 20 -148 16 -83 19
-92 31 -76 9 12 10 23 4 36 -14 26 -12 94 4 133 26 62 99 94 160 70 18 -7 21
-39 5 -50 -8 -4 -8 -9 1 -18 14 -14 30 8 30 42 0 18 6 22 30 22 27 0 30 -3 30
-30 0 -26 2 -29 14 -18 8 7 10 15 5 16 -6 2 -5 10 2 18 6 8 16 11 21 8 5 -3
18 2 30 13 11 10 22 16 24 15 2 -2 23 -1 45 3 44 8 67 -8 48 -31 -6 -7 -4 -16
7 -25 24 -20 44 -72 44 -114 0 -142 -152 -200 -210 -80 -11 23 -20 49 -20 58
0 9 -4 19 -10 22 -6 4 -10 -9 -10 -33 0 -73 -10 -102 -36 -102 -13 0 -28 8
-34 18 -8 12 -13 13 -16 5 -3 -8 -24 -13 -50 -13 -24 0 -44 -5 -44 -11 0 -5 5
-7 12 -3 7 4 8 3 4 -4 -12 -19 -50 -14 -76 10 -13 12 -39 24 -59 27 -32 6 -36
10 -39 39 -2 17 -9 32 -15 32 -7 0 -22 3 -33 6 -17 5 -24 0 -32 -25 -9 -26
-16 -31 -41 -31 -17 0 -31 3 -31 6 0 3 16 42 35 85 19 44 35 82 35 84 0 2 -13
-1 -30 -6 -32 -12 -35 -19 -45 -99 -9 -69 -10 -70 -42 -61 -18 5 -30 17 -38
40 l-11 32 -27 -30 c-15 -17 -32 -31 -38 -31 -5 0 -8 -4 -5 -9 7 -11 -18 -33
-35 -29 -7 2 -22 12 -32 23 -10 11 -16 15 -13 9 8 -16 -20 -39 -29 -24 -4 6
-1 9 6 8 7 -2 13 12 16 37 5 63 6 65 15 65 5 0 6 5 3 10 -3 6 -2 10 3 10 5 0
13 -10 18 -21 8 -17 13 -1 23 72 17 127 18 129 50 129 24 0 29 -6 45 -54 15
-44 22 -53 38 -48 15 4 17 7 6 13 -9 6 -9 9 -1 9 7 0 10 10 7 26 -3 16 -1 23
6 19 5 -3 10 -1 10 4 0 6 10 12 23 12 l22 2 -22 4 c-23 4 -29 14 -17 26 4 4
11 4 16 1 5 -4 37 -6 71 -7z m1797 -32 c35 -1 54 -5 53 -12 -1 -6 5 -9 15 -8
9 2 41 6 70 9 l52 5 0 -29 c0 -28 -3 -30 -38 -30 -36 0 -38 -2 -39 -32 -1 -18
0 -28 3 -23 2 6 21 10 42 8 39 -3 35 1 -11 11 -15 4 -25 11 -22 16 8 13 52 13
60 0 4 -6 11 -8 16 -5 5 3 6 -1 3 -9 -4 -9 -1 -16 6 -16 9 0 11 14 6 54 -7 50
-6 54 16 60 41 10 108 6 137 -9 16 -8 31 -12 35 -10 3 3 4 2 2 -1 -2 -3 2 -21
10 -39 8 -19 14 -57 14 -84 0 -84 -65 -137 -160 -130 -21 2 -42 0 -46 -4 -4
-4 -18 -7 -31 -7 -12 0 -23 -3 -23 -8 0 -4 -21 -6 -47 -5 -28 0 -35 -1 -18 -4
47 -7 52 -22 7 -19 -51 4 -81 24 -60 40 12 9 13 26 4 101 -6 50 -15 90 -21 91
-19 1 -65 24 -65 32 0 5 -6 9 -14 9 -8 0 -12 -6 -9 -15 8 -19 -14 -32 -54 -32
-28 0 -33 -3 -33 -25 0 -22 4 -25 40 -25 36 0 40 -3 40 -24 0 -19 -7 -25 -35
-30 -30 -6 -35 -11 -35 -36 0 -27 2 -28 48 -27 44 2 47 0 50 -25 3 -26 3 -26
-69 -30 -66 -3 -72 -1 -80 19 -6 17 -23 180 -24 238 0 6 34 15 75 21 41 6 70
12 65 13 -6 0 -11 10 -11 20 0 11 5 17 11 13 5 -4 35 -7 65 -7z m-1920 -29 c0
-8 -4 -17 -8 -20 -4 -2 -8 4 -8 15 0 10 4 19 8 19 4 0 8 -6 8 -14z m1288 -13
c2 -7 -5 -14 -15 -14 -10 -1 -4 -4 12 -8 l30 -6 6 -90 c3 -50 6 -79 7 -66 2
19 5 21 16 12 10 -8 16 -9 21 -1 9 15 25 12 25 -6 0 -8 5 -12 10 -9 6 3 10 -3
10 -14 0 -11 -8 -25 -17 -30 -10 -6 -13 -11 -7 -11 7 0 14 -12 16 -27 l4 -28
-73 -2 -73 -2 0 99 0 100 -30 -6 c-21 -5 -30 -3 -30 6 0 8 -2 11 -5 8 -4 -4
17 -84 51 -191 5 -16 1 -18 -27 -15 -28 2 -35 8 -43 36 -8 28 -13 32 -41 32
-29 0 -33 -4 -39 -35 -6 -31 -11 -35 -36 -35 -34 0 -36 8 -16 65 7 22 16 53
20 69 6 26 5 27 -9 13 -8 -9 -15 -20 -15 -26 0 -6 -4 -11 -8 -11 -4 0 -8 -10
-9 -22 -5 -68 -14 -87 -40 -90 -15 -2 -28 -10 -30 -18 -4 -13 -3 -13 6 0 7 9
11 10 11 3 0 -18 -18 -25 -36 -15 -12 7 -22 4 -36 -10 -10 -10 -23 -16 -28
-13 -6 4 -10 1 -10 -4 0 -6 -5 -11 -11 -11 -5 0 -7 5 -4 10 3 6 -7 18 -24 27
-22 13 -29 23 -26 43 5 43 7 46 15 20 5 -15 8 28 9 113 l1 137 33 0 c30 -1 34
-6 67 -73 l35 -72 3 73 3 72 29 0 c29 0 30 -1 30 -53 l0 -54 30 5 c25 4 31 11
43 51 9 35 18 47 35 49 12 2 22 8 22 13 0 5 7 9 15 9 8 0 15 -6 15 -12 0 -10
3 -9 9 1 7 11 9 11 14 0 4 -11 9 -9 21 7 16 23 57 27 64 7z m306 5 c-3 -4 -17
-8 -32 -7 -23 0 -24 2 -7 8 25 10 45 10 39 -1z m-2544 -22 c0 -3 -4 -8 -10
-11 -5 -3 -10 -1 -10 4 0 6 5 11 10 11 6 0 10 -2 10 -4z m2590 -11 c38 -20 61
-64 62 -120 2 -94 -37 -135 -137 -143 l-62 -4 -6 133 c-5 100 -3 135 6 141 21
13 106 9 137 -7z m1605 -24 c3 -5 1 -12 -5 -16 -5 -3 -10 1 -10 9 0 18 6 21
15 7z m-4250 -11 c-3 -5 -11 -10 -16 -10 -6 0 -7 5 -4 10 3 6 11 10 16 10 6 0
7 -4 4 -10z m4695 -9 c0 -17 -18 -21 -24 -6 -3 9 0 15 9 15 8 0 15 -4 15 -9z
m-4731 -33 c-5 -10 -12 -18 -14 -18 -3 0 -5 8 -5 18 0 10 7 19 14 19 11 0 13
-5 5 -19z m4361 -48 c0 -5 -5 -10 -11 -10 -5 0 -7 5 -4 10 3 6 8 10 11 10 2 0
4 -4 4 -10z m77 -6 c-3 -3 -12 -4 -19 -1 -8 3 -5 6 6 6 11 1 17 -2 13 -5z
m-3161 -131 c-10 -10 -19 5 -10 18 6 11 8 11 12 0 2 -7 1 -15 -2 -18z m29 7
c-3 -4 0 -11 5 -13 6 -3 5 -4 -1 -3 -7 1 -13 10 -15 19 -1 9 2 15 7 11 5 -3 7
-9 4 -14z m2465 6 c0 -3 -4 -8 -10 -11 -5 -3 -10 -1 -10 4 0 6 5 11 10 11 6 0
10 -2 10 -4z m-1321 -36 c4 0 8 -7 8 -15 0 -15 0 -15 -47 24 -3 2 3 1 13 -2
10 -4 22 -7 26 -7z m-1095 -36 c3 -8 2 -12 -4 -9 -6 3 -10 1 -10 -4 0 -20 -16
-11 -17 9 -2 24 22 27 31 4z m-74 -9 c0 -8 -4 -15 -10 -15 -5 0 -7 7 -4 15 4
8 8 15 10 15 2 0 4 -7 4 -15z"/>
<path d="M7388 3841 c11 -19 19 -26 24 -18 4 6 -2 19 -12 29 -28 26 -31 22
-12 -11z"/>
<path d="M7250 3824 c-12 -30 0 -86 26 -122 11 -16 24 -22 42 -20 26 3 27 6
27 59 0 67 -23 109 -60 109 -18 0 -28 -8 -35 -26z"/>
<path d="M7486 3808 c25 -80 43 -121 44 -103 2 11 2 23 1 28 0 4 8 7 20 7 11
0 18 -4 15 -8 -3 -5 2 -9 10 -9 9 0 -7 23 -38 54 -29 29 -54 53 -56 53 -2 0 0
-10 4 -22z"/>
<path d="M2642 3887 l-22 -23 19 -52 c13 -35 16 -54 9 -58 -6 -4 -8 -2 -4 4 3
6 0 17 -8 24 -8 8 -16 23 -19 34 -3 12 -5 8 -6 -12 -1 -37 19 -57 61 -60 17
-2 36 -8 42 -15 8 -9 8 -10 -1 -5 -9 5 -13 0 -13 -13 0 -12 4 -21 8 -21 10 0
74 212 67 219 -3 2 -10 -1 -17 -6 -16 -12 -49 -13 -42 -1 12 19 -54 6 -74 -15z
m83 -96 c-3 -6 -11 -11 -17 -11 -6 0 -6 6 2 15 14 17 26 13 15 -4z"/>
<path d="M3170 3757 c0 -8 7 -14 15 -14 8 0 15 6 15 14 0 7 -7 13 -15 13 -8 0
-15 -6 -15 -13z"/>
<path d="M2971 3744 c0 -11 3 -14 6 -6 3 7 2 16 -1 19 -3 4 -6 -2 -5 -13z"/>
<path d="M2960 3712 c0 -5 7 -9 15 -9 8 0 15 4 15 9 0 4 -7 8 -15 8 -8 0 -15
-4 -15 -8z"/>
<path d="M2898 3603 c7 -3 16 -2 19 1 4 3 -2 6 -13 5 -11 0 -14 -3 -6 -6z"/>
<path d="M7070 3799 c0 -5 5 -7 10 -4 6 3 10 8 10 11 0 2 -4 4 -10 4 -5 0 -10
-5 -10 -11z"/>
<path d="M6800 3643 c0 -20 3 -24 9 -14 5 7 15 10 22 7 8 -4 6 -1 -3 7 -10 8
-15 17 -11 20 3 4 1 7 -5 7 -7 0 -12 -12 -12 -27z"/>
<path d="M6370 3631 c0 -25 6 -27 13 -6 4 8 2 17 -3 20 -6 4 -10 -3 -10 -14z"/>
<path d="M6381 3573 c1 -10 4 -29 8 -43 l7 -25 8 24 c5 15 4 26 -4 31 -7 4 -9
13 -6 19 4 6 2 11 -3 11 -6 0 -11 -8 -10 -17z"/>
<path d="M6523 3528 c-1 -24 1 -35 4 -25 7 27 22 20 17 -9 -3 -17 -1 -23 6
-19 6 4 17 2 24 -4 7 -6 21 -8 30 -5 14 5 11 10 -15 26 -17 10 -36 32 -42 48
-16 41 -23 37 -24 -12z m48 -35 c13 -16 12 -17 -3 -4 -10 7 -18 15 -18 17 0 8
8 3 21 -13z"/>
<path d="M6449 3525 c-2 -18 -9 -29 -17 -27 -8 1 -11 -2 -7 -9 12 -18 37 15
33 42 -4 22 -5 21 -9 -6z"/>
<path d="M6870 3541 c0 -6 4 -13 10 -16 6 -3 7 1 4 9 -7 18 -14 21 -14 7z"/>
<path d="M3390 3718 c0 -7 -3 -23 -6 -35 -5 -19 -2 -23 19 -23 14 0 28 7 31
16 8 21 8 20 -10 38 -19 19 -34 21 -34 4z"/>
<path d="M3627 3673 c9 -3 2 -17 -20 -43 -27 -32 -33 -36 -39 -22 -4 10 -7 -3
-7 -30 -2 -84 53 -99 85 -23 23 56 13 126 -19 124 -9 0 -9 -2 0 -6z"/>
<path d="M3380 3603 c5 -2 8 -9 4 -14 -3 -5 0 -9 6 -9 15 0 7 23 -8 26 -7 1
-8 0 -2 -3z"/>
<path d="M3671 3476 c-9 -11 -9 -16 1 -22 7 -4 10 -4 6 1 -4 4 -3 14 3 22 6 7
9 13 6 13 -2 0 -10 -6 -16 -14z"/>
<path d="M4160 3656 c0 -2 7 -7 16 -10 8 -3 12 -2 9 4 -6 10 -25 14 -25 6z"/>
<path d="M4597 3619 c7 -7 15 -10 18 -7 3 3 -2 9 -12 12 -14 6 -15 5 -6 -5z"/>
<path d="M4329 3560 c-22 -18 -22 -21 -8 -32 16 -13 19 -19 19 -41 0 -7 11
-13 27 -12 22 0 28 6 35 33 17 63 -25 93 -73 52z"/>
<path d="M3870 3535 c0 -15 4 -24 10 -20 6 3 10 12 10 20 0 8 -4 17 -10 20 -6
4 -10 -5 -10 -20z"/>
<path d="M4631 3530 c-10 -25 -16 -28 -27 -19 -12 10 -14 3 -14 -40 0 -85 33
-117 75 -71 31 34 20 160 -14 160 -3 0 -12 -14 -20 -30z"/>
<path d="M3951 3534 c0 -11 3 -14 6 -6 3 7 2 16 -1 19 -3 4 -6 -2 -5 -13z"/>
<path d="M4126 3535 c-10 -28 -7 -45 9 -45 16 0 20 27 6 48 -7 11 -10 10 -15
-3z"/>
<path d="M4302 3480 c0 -14 2 -19 5 -12 2 6 2 18 0 25 -3 6 -5 1 -5 -13z"/>
<path d="M4255 3380 c-7 -11 11 -40 25 -40 11 0 6 28 -7 41 -8 8 -13 8 -18 -1z"/>
<path d="M6150 3604 c0 -8 5 -46 11 -83 9 -51 15 -68 28 -68 51 -1 70 90 30
141 -23 29 -69 36 -69 10z"/>
<path d="M6077 3523 c-4 -3 -7 -11 -7 -17 0 -6 5 -4 11 4 9 12 10 11 6 -8 -3
-12 -1 -20 4 -16 5 3 9 14 9 25 0 19 -11 25 -23 12z"/>
<path d="M5990 3460 c0 -28 2 -30 39 -30 43 0 65 18 33 27 -13 3 -18 11 -15
19 4 10 -3 14 -26 14 -28 0 -31 -3 -31 -30z"/>
<path d="M6097 3441 c-4 -17 -3 -21 5 -13 5 5 8 16 6 23 -3 8 -7 3 -11 -10z"/>
<path d="M5078 3475 c-7 -34 -5 -38 15 -33 13 2 13 8 3 33 l-13 30 -5 -30z"/>
<path d="M4833 3447 c0 -13 5 -24 13 -24 10 0 10 5 2 21 -15 29 -15 30 -15 3z"/>
<path d="M5511 3446 l-1 -68 28 7 c32 8 38 13 46 41 6 20 -11 34 -49 38 -5 1
-13 12 -16 26 -4 15 -7 -3 -8 -44z"/>
<path d="M2040 4188 c0 -3 18 -93 40 -202 22 -108 40 -203 40 -210 0 -11 -142
-106 -334 -224 -26 -16 -44 -32 -39 -35 32 -20 838 -315 844 -309 16 16 81
204 73 211 -5 4 -92 34 -194 65 -101 32 -199 64 -217 71 l-33 14 29 78 c16 43
57 152 90 242 34 90 60 165 59 166 -2 1 -77 30 -168 65 -91 34 -171 65 -177
67 -7 3 -13 3 -13 1z"/>
<path d="M7968 4121 c-92 -37 -170 -70 -173 -73 -3 -2 22 -76 56 -164 120
-313 120 -313 101 -323 -20 -10 -192 -66 -339 -111 -57 -17 -103 -34 -103 -37
0 -7 80 -206 85 -211 2 -2 77 24 167 58 227 87 584 219 641 238 26 9 47 18 47
21 0 3 -84 58 -186 121 -102 63 -188 120 -191 127 -4 10 57 346 73 406 3 9 2
17 -3 17 -4 -1 -83 -31 -175 -69z"/>
<path d="M7408 3330 c-20 -41 -56 -118 -82 -170 l-47 -95 42 45 c23 25 68 82
101 127 l59 82 -19 43 -20 43 -34 -75z"/>
<path d="M2702 3333 c-11 -36 -10 -39 43 -108 29 -38 68 -83 85 -100 29 -28
26 -19 -36 108 -38 75 -71 137 -75 137 -3 0 -11 -17 -17 -37z"/>
<path d="M2020 3344 c0 -12 87 -155 161 -264 355 -525 905 -972 1529 -1243
232 -101 570 -198 805 -232 61 -8 124 -18 141 -20 l31 -5 -5 77 c-4 74 6 122
42 204 6 13 -12 18 -116 33 -218 32 -551 125 -748 209 -19 8 -60 18 -90 22
-56 7 -415 70 -459 81 -24 5 -24 5 15 47 84 90 84 79 10 126 -63 39 -302 218
-376 281 -28 23 -67 37 -195 70 -88 22 -169 43 -180 47 -17 5 -9 15 54 73 l74
67 -86 107 c-48 59 -90 113 -94 121 -5 7 -109 51 -233 98 -124 47 -237 90
-252 96 -16 6 -28 8 -28 5z"/>
<path d="M7866 3235 l-239 -92 -74 -89 c-121 -147 -117 -125 -39 -203 64 -64
66 -69 44 -75 -12 -3 -95 -24 -183 -47 -138 -35 -165 -46 -195 -74 -90 -84
-413 -319 -464 -338 -6 -3 11 -28 38 -56 28 -28 48 -52 45 -54 -4 -4 -318 -62
-399 -74 -19 -3 -102 -30 -183 -60 -261 -95 -530 -163 -710 -179 -66 -6 -77
-9 -71 -23 42 -99 47 -120 47 -203 l-1 -88 42 6 c292 41 612 123 846 219 560
228 1020 562 1407 1020 110 130 361 507 336 504 -4 0 -116 -43 -247 -94z"/>
<path d="M3450 2522 c19 -33 38 -58 44 -55 5 3 6 1 2 -5 -8 -13 10 -52 32 -68
12 -9 9 -15 -16 -39 -17 -16 -28 -33 -25 -38 4 -6 1 -7 -6 -2 -9 5 -3 17 20
44 19 20 -1 2 -43 -38 -43 -41 -76 -76 -75 -78 5 -4 291 -51 309 -50 13 0 15
4 7 13 -7 9 -5 15 10 23 12 7 18 17 15 26 -3 8 -1 47 6 87 18 115 15 110 68
102 26 -3 52 -10 57 -13 6 -4 24 -4 40 0 17 3 23 7 13 8 -25 2 -10 39 21 49
21 7 -1 12 -107 26 -112 15 -135 16 -149 4 -14 -11 -16 -11 -11 3 5 13 -12 18
-97 33 -57 10 -113 20 -126 23 -21 6 -21 3 11 -55z m50 -32 c0 -5 -4 -10 -10
-10 -5 0 -10 5 -10 10 0 6 5 10 10 10 6 0 10 -4 10 -10z m30 -65 c0 -5 -5 -3
-10 5 -5 8 -10 20 -10 25 0 6 5 3 10 -5 5 -8 10 -19 10 -25z m-80 -128 c0 -2
-10 -12 -22 -23 l-23 -19 19 23 c18 21 26 27 26 19z"/>
<path d="M6520 2549 c-119 -23 -270 -44 -574 -78 l-239 -26 -17 -31 c-15 -26
-16 -33 -4 -49 13 -17 14 -17 14 -2 0 10 7 20 15 23 8 4 15 11 15 16 0 6 -7 8
-15 4 -9 -3 -15 0 -15 10 0 18 28 30 40 18 14 -14 1 -52 -19 -56 -10 -3 -6 -6
11 -10 15 -3 26 -1 25 5 -1 5 5 12 13 14 9 3 11 1 5 -4 -13 -11 -16 -43 -3
-43 5 0 6 -4 3 -10 -3 -5 1 -22 9 -37 12 -24 15 -26 21 -10 4 9 5 24 2 32 -4
8 -2 17 3 20 6 4 10 15 10 26 0 16 6 20 27 17 25 -3 29 -9 39 -58 8 -41 13
-50 19 -37 4 10 5 38 1 63 -5 41 -4 44 18 44 22 0 25 -6 35 -82 15 -104 19
-118 35 -118 13 0 46 -31 46 -43 0 -4 -14 -7 -31 -7 -16 0 -28 4 -25 9 7 11
-34 2 -51 -12 -7 -5 -21 -6 -30 -3 -14 6 -15 9 -4 15 19 12 5 31 -22 31 -18 0
-19 -2 -7 -11 13 -9 13 -10 0 -7 -8 3 -15 13 -16 24 0 10 -2 35 -3 54 l-3 35
-9 -40 c-5 -21 -7 -45 -4 -53 3 -9 -3 -12 -21 -10 -21 2 -30 13 -45 48 l-18
45 0 -48 c-1 -33 -6 -49 -16 -54 -22 -8 -23 -4 -26 55 -2 29 -6 55 -10 58 -5
3 -6 18 -2 34 4 21 2 30 -7 30 -10 0 -11 -21 -6 -90 l8 -90 -25 0 c-22 0 -25
5 -31 61 -3 34 -6 78 -6 98 0 26 -3 32 -10 21 -8 -12 -10 -12 -16 3 -3 9 -14
17 -23 17 -13 0 -14 2 -1 9 8 6 19 7 25 3 25 -16 35 -11 23 11 -6 12 -16 25
-22 29 -6 4 -7 11 -2 15 5 4 11 2 13 -5 3 -6 10 -9 15 -6 7 5 8 2 3 -7 -4 -8
0 -7 10 3 11 10 16 20 13 23 -3 3 -127 1 -276 -5 -305 -13 -826 0 -1067 25
-276 30 -267 29 -294 6 -13 -12 -20 -21 -15 -22 5 0 -1 -4 -14 -9 l-23 -10 22
-29 c31 -42 22 -106 -21 -144 -27 -24 -36 -27 -83 -22 -29 2 -63 7 -77 11 -18
4 -21 3 -11 -4 11 -8 6 -12 -22 -17 l-37 -7 23 -18 c34 -26 450 -79 789 -100
211 -13 817 -13 1028 0 252 16 823 83 752 89 -7 1 -10 6 -7 11 4 6 1 9 -7 8
-8 -2 -12 4 -10 16 3 16 -2 17 -55 12 -32 -4 -72 -9 -89 -12 l-31 -6 -13 85
c-12 81 -13 84 -38 79 -24 -5 -24 -7 -18 -64 3 -32 9 -70 12 -83 5 -22 3 -25
-19 -25 -29 0 -33 8 -42 96 -6 58 -8 61 -32 56 -21 -4 -24 -1 -21 19 3 21 11
24 88 36 47 8 106 15 132 17 26 2 52 7 59 12 8 5 10 3 4 -7 -6 -11 -5 -12 6
-1 13 12 71 17 82 6 9 -10 -4 -34 -19 -34 -28 0 -16 -22 30 -54 28 -19 26 -74
-3 -98 -13 -10 -19 -18 -15 -19 33 -3 58 -11 70 -24 9 -8 23 -15 32 -15 20 0
251 39 271 46 10 3 -8 28 -57 77 l-71 72 49 93 49 92 -27 -1 c-15 -1 -70 -10
-122 -20z m-80 -40 c0 -6 -6 -9 -14 -6 -7 3 -19 0 -25 -6 -8 -8 -11 -7 -11 6
0 11 8 17 25 17 14 0 25 -5 25 -11z m-2015 -79 c3 -5 1 -10 -4 -10 -6 0 -11 5
-11 10 0 6 2 10 4 10 3 0 8 -4 11 -10z m-359 -28 c8 -5 9 -25 2 -70 -11 -72
-6 -95 19 -90 14 2 20 19 28 73 9 62 13 70 34 73 23 4 23 3 16 -60 -4 -34 -12
-74 -17 -87 -7 -21 -7 -22 7 -11 8 7 15 27 15 44 0 41 33 94 62 100 51 11 87
12 85 3 -3 -13 32 -17 40 -5 3 7 1 8 -5 4 -7 -4 -12 -3 -12 1 0 13 52 29 79
25 13 -2 26 -12 28 -23 3 -10 10 -19 15 -19 6 0 8 -6 5 -14 -6 -16 8 -15 40 2
22 12 93 14 93 2 0 -3 12 -6 28 -5 l27 0 -3 -100 c-2 -55 -9 -104 -14 -110 -8
-7 -9 -6 -4 3 5 8 0 12 -13 12 -19 0 -21 6 -21 74 0 41 -4 77 -9 80 -5 4 -20
1 -33 -4 -21 -10 -21 -10 -1 -6 24 4 36 -13 23 -34 -5 -7 -18 -11 -33 -8 -20
4 -27 0 -31 -16 -7 -28 13 -49 42 -41 20 5 23 3 20 -17 -3 -20 -8 -23 -42 -22
-52 2 -76 31 -76 90 0 31 -4 44 -14 44 -11 0 -12 -11 -1 -65 12 -65 12 -65
-11 -65 -17 0 -25 7 -30 25 -8 32 -49 35 -59 5 -5 -16 -15 -20 -51 -20 -25 0
-59 7 -76 16 -22 12 -28 12 -22 2 6 -10 4 -10 -10 1 -9 8 -15 20 -12 28 4 11
1 11 -14 3 -11 -6 -20 -9 -20 -6 0 3 -12 -1 -26 -9 -52 -27 -94 8 -94 79 0
105 14 140 46 118z m734 -11 c0 -6 -10 -17 -22 -25 -12 -9 -17 -16 -10 -16 7
0 24 -12 37 -26 21 -23 25 -37 25 -89 0 -52 -4 -65 -22 -81 l-23 -19 20 25 20
25 -27 -24 c-26 -23 -40 -24 -107 -8 -25 6 -33 111 -11 152 7 13 21 27 32 31
10 3 18 10 18 16 0 19 32 48 52 48 10 0 18 -4 18 -9z m1000 -31 c0 -5 -4 -10
-10 -10 -5 0 -10 5 -10 10 0 6 5 10 10 10 6 0 10 -4 10 -10z m-243 -17 c-1
-10 0 -46 1 -80 l2 -63 35 0 c28 0 35 -4 35 -19 0 -20 -26 -31 -77 -31 -27 0
-33 4 -33 21 0 14 -5 19 -15 16 -8 -4 -17 -2 -20 3 -4 6 1 10 9 10 16 0 21 12
10 23 -10 10 -55 -46 -49 -61 3 -7 0 -10 -5 -7 -6 3 -10 1 -10 -4 0 -6 -11
-11 -25 -11 -17 0 -29 8 -37 25 -6 13 -15 22 -21 18 -6 -3 -8 -2 -4 3 3 5 -1
20 -9 34 -13 24 -13 23 -14 -27 0 -45 -3 -53 -19 -53 -24 0 -31 26 -31 123 0
74 1 77 23 77 15 0 29 -11 41 -30 19 -34 36 -31 36 5 0 13 6 25 13 28 24 8 37
-6 37 -41 0 -31 2 -34 13 -19 11 15 15 15 40 3 l27 -15 0 39 c0 32 4 39 23 43
12 2 22 5 23 6 0 0 1 -7 1 -16z m-635 -55 l27 -53 0 53 c1 51 2 52 30 52 28 0
29 -2 25 -37 -3 -21 -8 -66 -11 -100 -5 -56 -8 -63 -27 -63 -16 0 -25 10 -35
35 -7 21 -17 33 -23 29 -7 -4 -8 -2 -4 4 4 7 2 20 -3 29 -8 14 -10 5 -11 -39
0 -31 5 -60 10 -63 6 -3 10 -10 10 -16 0 -5 -4 -9 -10 -9 -5 0 -9 6 -7 12 1 7
-9 14 -23 15 -23 2 -23 2 -5 -7 l20 -10 -20 3 c-16 2 -20 9 -19 42 1 22 2 70
3 108 1 63 2 67 24 67 18 0 29 -12 49 -52z m268 43 c0 -29 -13 -40 -41 -34
-39 8 -37 -3 11 -47 47 -43 49 -61 14 -97 -21 -21 -32 -24 -61 -20 -42 7 -47
11 -40 32 4 9 19 15 42 15 53 0 41 37 -15 45 -32 4 -39 66 -10 95 21 21 100
29 100 11z m72 -94 c3 -100 2 -103 -18 -99 -14 2 -21 -1 -21 -12 0 -9 4 -16 9
-16 4 0 8 -4 8 -10 0 -5 -6 -10 -14 -10 -11 0 -14 25 -15 125 l-2 125 25 0
c24 0 25 -1 28 -103z m-1025 -82 c0 -7 -9 -16 -18 -18 -15 -4 -17 -2 -9 13 5
9 6 20 2 24 -3 4 1 4 9 1 9 -3 16 -12 16 -20z m40 -11 c-3 -3 -12 -4 -19 -1
-8 3 -5 6 6 6 11 1 17 -2 13 -5z m1593 -4 c0 -5 -2 -10 -4 -10 -3 0 -8 5 -11
10 -3 6 -1 10 4 10 6 0 11 -4 11 -10z m-1055 -20 c-3 -5 -11 -10 -16 -10 -6 0
-7 5 -4 10 3 6 11 10 16 10 6 0 7 -4 4 -10z"/>
<path d="M4375 2380 c-3 -5 -1 -10 4 -10 6 0 11 5 11 10 0 6 -2 10 -4 10 -3 0
-8 -4 -11 -10z"/>
<path d="M4295 2340 c-16 -7 -17 -9 -3 -9 9 -1 20 4 23 9 7 11 7 11 -20 0z"/>
<path d="M4269 2286 c8 -10 6 -19 -9 -39 l-20 -25 35 -4 c19 -2 35 0 35 4 0
13 3 22 17 48 15 29 7 42 -11 17 -16 -21 -26 -22 -26 -2 0 8 -7 15 -16 15 -13
0 -14 -3 -5 -14z"/>
<path d="M4732 2298 c-14 -14 -16 -48 -3 -48 5 0 12 6 14 13 7 17 29 -13 22
-31 -3 -7 0 -10 5 -7 6 4 9 19 8 35 -1 16 -6 26 -10 24 -4 -3 -8 2 -8 10 0 19
-11 21 -28 4z"/>
<path d="M4720 2202 c0 -18 29 -27 43 -13 9 9 8 11 -7 5 -11 -4 -21 -2 -27 7
-6 10 -9 11 -9 1z"/>
<path d="M5450 2264 c-24 -13 -24 -14 -4 -14 12 0 24 7 28 15 3 8 4 15 3 14
-1 -1 -13 -7 -27 -15z"/>
<path d="M3993 2483 c9 -2 23 -2 30 0 6 3 -1 5 -18 5 -16 0 -22 -2 -12 -5z"/>
<path d="M3784 2389 c-3 -6 0 -15 7 -20 21 -13 32 -11 26 5 -3 8 -1 17 6 20 7
2 2 5 -10 5 -12 1 -25 -4 -29 -10z"/>
<path d="M6280 2391 c0 -6 4 -13 10 -16 6 -3 7 1 4 9 -7 18 -14 21 -14 7z"/>
<path d="M3922 2373 c-10 -4 -10 -8 0 -20 10 -12 9 -18 -6 -28 -21 -16 -18
-48 7 -53 20 -4 40 39 35 77 -3 25 -14 33 -36 24z"/>
<path d="M6160 2360 c0 -11 4 -20 8 -20 4 0 8 9 9 20 1 11 -2 20 -8 20 -5 0
-9 -9 -9 -20z"/>
<path d="M3771 2308 c0 -16 2 -18 6 -8 3 8 11 18 17 22 7 5 4 8 -6 8 -12 0
-18 -7 -17 -22z"/>
<path d="M6287 2308 c-3 -10 0 -19 8 -22 15 -5 31 11 21 21 -3 4 -6 0 -7 -8 0
-8 -3 -6 -8 5 -6 17 -8 17 -14 4z"/>
<path d="M6170 2280 c0 -22 24 -27 50 -10 13 8 12 10 -2 10 -10 0 -18 5 -18
10 0 6 -7 10 -15 10 -8 0 -15 -9 -15 -20z"/>
<path d="M3808 2283 c7 -3 16 -2 19 1 4 3 -2 6 -13 5 -11 0 -14 -3 -6 -6z"/>
<path d="M5900 2217 c0 -9 4 -18 9 -21 5 -4 8 1 7 9 -3 21 -16 31 -16 12z"/>
<path d="M3728 2183 c6 -2 18 -2 25 0 6 3 1 5 -13 5 -14 0 -19 -2 -12 -5z"/>
<path d="M6368 2183 c6 -2 18 -2 25 0 6 3 1 5 -13 5 -14 0 -19 -2 -12 -5z"/>
<path d="M4973 2012 c-222 -79 -309 -326 -183 -520 67 -104 163 -154 295 -155
66 -1 90 4 137 25 75 35 141 98 175 167 25 49 28 68 28 151 0 85 -3 101 -29
153 -35 69 -108 140 -173 169 -68 29 -182 34 -250 10z m198 -98 c89 -44 117
-177 56 -257 -34 -44 -57 -92 -57 -117 0 -19 -6 -20 -84 -20 l-83 0 -6 35 c-3
19 -22 62 -42 94 -48 77 -54 125 -26 185 43 89 153 125 242 80z m-11 -429 c0
-12 -16 -15 -80 -15 -64 0 -80 3 -80 15 0 12 16 15 80 15 64 0 80 -3 80 -15z
m0 -32 c-8 -3 -23 -14 -33 -24 -20 -21 -49 -24 -78 -9 -42 23 -15 33 101 37
14 1 18 -1 10 -4z"/>
</g>
</svg>
